<svg xmlns="http://www.w3.org/2000/svg" viewBox="0 0 200 300">
  <defs>
    <linearGradient id="g1" x1="0%" y1="0%" x2="100%" y2="100%">
      <stop offset="0%" style="stop-color:#2D8B4A"/>
      <stop offset="100%" style="stop-color:#1A5C32"/>
    </linearGradient>
  </defs>
  <path d="M85 45 Q100 40 115 45 L125 70 Q130 85 120 100 L115 280 L85 280 L80 100 Q70 85 75 70 Z" fill="url(#g1)"/>
  <path d="M85 45 Q100 40 115 45" stroke="#D4A853" stroke-width="2" fill="none"/>
  <path d="M80 60 L75 80" stroke="#D4A853" stroke-width="1.5" fill="none"/>
  <path d="M120 60 L125 80" stroke="#D4A853" stroke-width="1.5" fill="none"/>
  <path d="M90 80 L85 100 L80 120" stroke="#D4A853" stroke-width="1" fill="none" opacity="0.5"/>
  <path d="M110 80 L115 100 L120 120" stroke="#D4A853" stroke-width="1" fill="none" opacity="0.5"/>
  <path d="M100 65 L100 270" stroke="#D4A853" stroke-width="0.5" fill="none" opacity="0.3"/>
  <circle cx="100" cy="55" r="4" fill="#D4A853" opacity="0.8"/>
  <circle cx="92" cy="52" r="2" fill="#D4A853" opacity="0.5"/>
  <circle cx="108" cy="52" r="2" fill="#D4A853" opacity="0.5"/>
  <path d="M82 100 Q90 110 100 105 Q110 110 118 100" stroke="#D4A853" stroke-width="1" fill="none" opacity="0.4"/>
  <path d="M84 140 Q92 150 100 145 Q108 150 116 140" stroke="#D4A853" stroke-width="1" fill="none" opacity="0.4"/>
</svg>
