<svg xmlns="http://www.w3.org/2000/svg" viewBox="0 0 200 300">
  <defs>
    <linearGradient id="g1" x1="0%" y1="0%" x2="100%" y2="100%">
      <stop offset="0%" style="stop-color:#FF7A5C"/>
      <stop offset="45%" style="stop-color:#E85D4A"/>
      <stop offset="100%" style="stop-color:#B53428"/>
    </linearGradient>
    <linearGradient id="g2" x1="0%" y1="0%" x2="0%" y2="100%">
      <stop offset="0%" style="stop-color:#FFD966"/>
      <stop offset="100%" style="stop-color:#D4A853"/>
    </linearGradient>
  </defs>
  <path d="M65 50 L100 40 L135 50 L140 80 Q140 90 130 95 L130 180 L70 180 L70 95 Q60 90 60 80 Z" fill="url(#g1)"/>
  <path d="M65 50 L100 40 L135 50" stroke="url(#g2)" stroke-width="3" fill="none" stroke-linecap="round"/>
  <path d="M60 65 L52 60" stroke="url(#g2)" stroke-width="2.5" fill="none" stroke-linecap="round"/>
  <path d="M140 65 L148 60" stroke="url(#g2)" stroke-width="2.5" fill="none" stroke-linecap="round"/>
  <path d="M100 40 L100 175" stroke="url(#g2)" stroke-width="0.5" fill="none" opacity="0.4"/>
  <path d="M75 100 L90 95 L100 100 L110 95 L125 100" stroke="url(#g2)" stroke-width="1.5" fill="none" opacity="0.8"/>
  <path d="M78 130 L92 125 L100 130 L108 125 L122 130" stroke="url(#g2)" stroke-width="1.5" fill="none" opacity="0.8"/>
  <circle cx="100" cy="65" r="4" fill="url(#g2)"/>
  <path d="M85 75 L90 72 L95 75" stroke="url(#g2)" stroke-width="1.5" fill="none" opacity="0.8"/>
  <path d="M105 75 L110 72 L115 75" stroke="url(#g2)" stroke-width="1.5" fill="none" opacity="0.8"/>
  <path d="M72 150 Q86 146 100 150 Q114 146 128 150" stroke="url(#g2)" stroke-width="1.5" fill="none" opacity="0.6"/>
</svg>
